<?xml version="1.0" encoding="iso-8859-1"?>
<!-- Generator: Adobe Illustrator 19.0.0, SVG Export Plug-In . SVG Version: 6.00 Build 0)  -->
<svg version="1.1" id="Capa_1" xmlns="http://www.w3.org/2000/svg" xmlns:xlink="http://www.w3.org/1999/xlink" x="0px" y="0px"
	 viewBox="0 0 512.001 512.001" style="enable-background:new 0 0 512.001 512.001;" xml:space="preserve">
<path style="fill:#FFCA28;" d="M405.383,13.334h-42.667c-5.891,0-10.667,4.776-10.667,10.667v135.339
	c0.009,5.062,3.574,9.42,8.533,10.432l42.667,8.96c0.701,0.152,1.416,0.231,2.133,0.235c5.891,0,10.667-4.776,10.667-10.667V24
	C416.05,18.109,411.274,13.334,405.383,13.334z"/>
<path style="fill:#FFB300;" d="M357.127,13.995c-2.015-2.125-4.815-3.329-7.744-3.328h-42.667
	c-5.681-0.008-10.371,4.439-10.667,10.112l-10.667,202.667c-0.306,5.883,4.215,10.901,10.098,11.207
	c0.19,0.01,0.379,0.015,0.569,0.014c0.899,0.009,1.795-0.098,2.667-0.32l42.667-10.667c4.533-1.133,7.802-5.084,8.064-9.749
	l10.667-192C360.257,18.987,359.176,16.114,357.127,13.995z"/>
<g>
	<path style="fill:#FFC107;" d="M96.839,76.587c-2.387-1.674-5.354-2.299-8.213-1.728L35.292,85.526
		c-5.683,1.081-9.468,6.494-8.533,12.203l21.333,128c0.852,5.192,5.363,8.987,10.624,8.939h53.333
		c5.891-0.002,10.665-4.78,10.663-10.671c0-0.541-0.042-1.082-0.124-1.617L101.255,83.712
		C100.817,80.834,99.222,78.26,96.839,76.587z"/>
	<path style="fill:#FFC107;" d="M479.495,86.464l-42.667-21.333c-5.269-2.634-11.676-0.498-14.311,4.771
		c-0.001,0.003-0.003,0.005-0.004,0.008l-82.539,165.056c-2.639,5.267-0.509,11.676,4.758,14.315c1.483,0.743,3.119,1.13,4.778,1.13
		c0.673-0.002,1.344-0.066,2.005-0.192l82.539-15.723c3.788-0.728,6.888-3.444,8.107-7.104l42.667-128
		C486.517,94.356,484.244,88.845,479.495,86.464z"/>
</g>
<path style="fill:#FFB300;" d="M413.298,138.987l-42.667-10.667c-5.716-1.424-11.505,2.055-12.929,7.771
	c-0.103,0.412-0.181,0.831-0.234,1.253l-10.667,85.333c-0.731,5.846,3.416,11.177,9.261,11.907c0.466,0.058,0.936,0.086,1.405,0.082
	h42.667c5.347,0.054,9.908-3.859,10.667-9.152l10.667-74.667C422.228,145.375,418.682,140.228,413.298,138.987z"/>
<path style="fill:#FFD54F;" d="M131.975,137.344c-0.732-5.845-6.065-9.99-11.91-9.258c-0.422,0.053-0.84,0.131-1.253,0.234
	l-42.667,10.667c-5.307,1.323-8.754,6.447-7.979,11.861l10.667,74.667c0.759,5.293,5.32,9.206,10.667,9.152h42.667
	c5.891,0.046,10.703-4.693,10.749-10.584c0.004-0.47-0.024-0.939-0.082-1.405L131.975,137.344z"/>
<path style="fill:#FFC107;" d="M154.652,22.742c-0.361-3.047-2.017-5.791-4.544-7.531c-2.516-1.751-5.671-2.32-8.64-1.557
	L98.802,24.32c-4.75,1.185-8.084,5.451-8.085,10.347l0.128,33.6l21.333,138.667c0.8,5.202,5.275,9.043,10.539,9.045h42.667
	c5.891,0.041,10.7-4.701,10.741-10.592c0.003-0.446-0.022-0.891-0.074-1.333L154.652,22.742z"/>
<g>
	<path style="fill:#FFD54F;" d="M239.58,289.259l-31.381-179.456c0-0.384-0.149-0.747-0.256-1.088L186.61,34.048
		c-1.639-5.658-7.555-8.917-13.213-7.277c-0.591,0.171-1.167,0.394-1.72,0.664L129.01,48.768c-3.929,1.967-6.249,6.142-5.845,10.517
		l23.915,262.635c0.533,5.867,5.721,10.191,11.588,9.658c1.085-0.099,2.149-0.363,3.154-0.783l71.36-29.867
		C237.776,299.01,240.433,294.166,239.58,289.259z"/>
	<path style="fill:#FFD54F;" d="M304.05,21.334h-42.667c-5.536-0.022-10.168,4.193-10.667,9.707l-25.301,281.344
		c-0.53,5.867,3.796,11.053,9.663,11.583c0.334,0.03,0.668,0.045,1.003,0.043h59.328c5.728,0.005,10.438-4.516,10.667-10.24
		l8.64-217.344V32C314.716,26.109,309.941,21.334,304.05,21.334z"/>
</g>
<path style="fill:#FFC107;" d="M360.476,106.944l-64-10.667c-2.942-0.462-5.944,0.31-8.299,2.133
	c-2.35,1.831-3.828,4.562-4.075,7.531L267.442,305.28c-0.475,5.635,3.531,10.662,9.131,11.456l51.477,7.339
	c0.504,0.036,1.01,0.036,1.515,0c5.207-0.001,9.653-3.761,10.517-8.896l7.872-46.656v-0.256l21.333-149.333
	C370.082,113.21,366.176,107.895,360.476,106.944z"/>
<path style="fill:#FFB300;" d="M269.191,3.392c-2.019-2.165-4.847-3.394-7.808-3.392h-42.667c-5.411-0.042-9.996,3.975-10.667,9.344
	l-35.2,281.92c-0.654,5.184,2.543,10.078,7.552,11.563l56.576,16.747c0.998,0.289,2.033,0.432,3.072,0.427
	c5.604,0.015,10.263-4.309,10.667-9.899L272.05,11.435C272.258,8.473,271.222,5.558,269.191,3.392z"/>
<path style="fill:#FFCA28;" d="M245.383,95.467c-0.284-5.682-4.978-10.14-10.667-10.133H192.05
	c-5.891-0.008-10.673,4.761-10.681,10.652c0,0.19,0.005,0.38,0.014,0.569l10.667,202.667c0.253,4.673,3.524,8.636,8.064,9.771
	l42.667,10.667c0.85,0.223,1.724,0.338,2.603,0.341c5.891,0.007,10.673-4.762,10.68-10.653c0-0.182-0.004-0.365-0.013-0.547
	L245.383,95.467z"/>
<path style="fill:#F44336;" d="M461.959,217.6c-2.014-2.686-5.176-4.267-8.533-4.267H346.759c-5.891,0-10.667,4.776-10.667,10.667
	c0,41.237-33.429,74.667-74.667,74.667h-21.333c-41.237,0-74.667-33.429-74.667-74.667c0-5.891-4.776-10.667-10.667-10.667H48.092
	c-5.891-0.001-10.668,4.774-10.669,10.665c0,1.064,0.159,2.121,0.471,3.138l76.011,247.211c6.813,22.435,27.54,37.742,50.987,37.653
	H336.54c23.447,0.088,44.173-15.218,50.987-37.653l76.053-247.211C464.595,223.881,463.992,220.337,461.959,217.6z"/>
<g>
</g>
<g>
</g>
<g>
</g>
<g>
</g>
<g>
</g>
<g>
</g>
<g>
</g>
<g>
</g>
<g>
</g>
<g>
</g>
<g>
</g>
<g>
</g>
<g>
</g>
<g>
</g>
<g>
</g>
</svg>
