<svg height="512" viewBox="0 0 64 64" width="512" xmlns="http://www.w3.org/2000/svg"><g id="outline"><path d="m24 46h2v2h-2z"/><path d="m28 44h2v2h-2z"/><path d="m40 29h2v2h-2z"/><path d="m37 33h2v2h-2z"/><path d="m40 36h2v2h-2z"/><path d="m39 2h-4a1 1 0 0 0 -1 1v11h-19a1 1 0 0 0 -1 1v6a1 1 0 0 0 1 1h2.1l3.91 39.1a1 1 0 0 0 1 .9h19.99a1 1 0 0 0 1-.9l3.905-39.1h2.095a1 1 0 0 0 1-1v-6a1 1 0 0 0 -1-1h-9v-11a1 1 0 0 0 -1-1zm-3 2h2v10h-2zm5.1 56h-18.195l-3.076-30.761a17.458 17.458 0 0 0 5.171.761 14.892 14.892 0 0 0 7.429-1.7 13.01 13.01 0 0 1 6.571-1.5 13.068 13.068 0 0 1 5.322.926zm3.433-34.334a15.33 15.33 0 0 0 -5.533-.866 14.892 14.892 0 0 0 -7.429 1.7 13.01 13.01 0 0 1 -6.571 1.5 15.36 15.36 0 0 1 -5.39-.947l-.505-5.053h25.795zm3.467-9.666v4h-32v-4z"/><path d="m28 41a2.9 2.9 0 0 0 3-3v-2a2.9 2.9 0 0 0 -3-3h-2a2.9 2.9 0 0 0 -3 3v2a2.9 2.9 0 0 0 3 3zm-3-3v-2a.91.91 0 0 1 1-1h2a.91.91 0 0 1 1 1v2a.91.91 0 0 1 -1 1h-2a.91.91 0 0 1 -1-1z"/><path d="m35 41a2.9 2.9 0 0 0 -3 3v2a2.9 2.9 0 0 0 3 3h2a2.9 2.9 0 0 0 3-3v-2a2.9 2.9 0 0 0 -3-3zm3 3v2a.91.91 0 0 1 -1 1h-2a.91.91 0 0 1 -1-1v-2a.91.91 0 0 1 1-1h2a.91.91 0 0 1 1 1z"/><path d="m30 50h-2a2.9 2.9 0 0 0 -3 3v2a2.9 2.9 0 0 0 3 3h2a2.9 2.9 0 0 0 3-3v-2a2.9 2.9 0 0 0 -3-3zm1 5a.91.91 0 0 1 -1 1h-2a.91.91 0 0 1 -1-1v-2a.91.91 0 0 1 1-1h2a.91.91 0 0 1 1 1z"/></g></svg>